<svg xmlns="http://www.w3.org/2000/svg" width="546.6891479492188" height="424.3592224121094" viewBox="-276.88348388671875 -216.71632385253906 546.6891479492188 424.3592224121094"><title>Neo4j Graph Visualization</title><desc>Created using Neo4j (http://www.neo4j.com/)</desc><g class="layer relationships"><g class="relationship" transform="translate(62.37438277615006 107.59000266844106) rotate(367.39558847491674)"><path class="outline" fill="#A5ABB6" stroke="none" d="M 25 0.5 L 63.682786935828375 0.5 L 63.682786935828375 -0.5 L 25 -0.5 Z M 109.24528693582837 0.5 L 147.92807387165675 0.5 L 147.92807387165675 3.5 L 154.92807387165675 0 L 147.92807387165675 -3.5 L 147.92807387165675 -0.5 L 109.24528693582837 -0.5 Z"/><text text-anchor="middle" pointer-events="none" font-size="8px" fill="#000000" x="86.46403693582837" y="3" font-family="sans-serif">ACTED_IN</text></g><g class="relationship" transform="translate(62.37438277615006 107.59000266844106) rotate(333.85851496489795)"><path class="outline" fill="#A5ABB6" stroke="none" d="M 25 0.5 L 50.336110486982136 0.5 L 50.336110486982136 -0.5 L 25 -0.5 Z M 95.89861048698214 0.5 L 121.23472097396427 0.5 L 121.23472097396427 3.5 L 128.23472097396427 0 L 121.23472097396427 -3.5 L 121.23472097396427 -0.5 L 95.89861048698214 -0.5 Z"/><text text-anchor="middle" pointer-events="none" font-size="8px" fill="#000000" x="73.11736048698214" y="3" font-family="sans-serif">ACTED_IN</text></g><g class="relationship" transform="translate(62.37438277615006 107.59000266844106) rotate(293.59939385617315)"><path class="outline" fill="#A5ABB6" stroke="none" d="M 25 0.5 L 37.57785961802841 0.5 L 37.57785961802841 -0.5 L 25 -0.5 Z M 83.14035961802841 0.5 L 95.71821923605683 0.5 L 95.71821923605683 3.5 L 102.71821923605683 0 L 95.71821923605683 -3.5 L 95.71821923605683 -0.5 L 83.14035961802841 -0.5 Z"/><text text-anchor="middle" pointer-events="none" font-size="8px" fill="#000000" x="60.35910961802841" y="3" font-family="sans-serif">ACTED_IN</text></g><g class="relationship" transform="translate(131.4622505546658 178.64288522208597) rotate(336.34646301561065)"><path class="outline" fill="#A5ABB6" stroke="none" d="M 25 0.5 L 33.404776960113615 0.5 L 33.404776960113615 -0.5 L 25 -0.5 Z M 78.96727696011362 0.5 L 87.37205392022723 0.5 L 87.37205392022723 3.5 L 94.37205392022723 0 L 87.37205392022723 -3.5 L 87.37205392022723 -0.5 L 78.96727696011362 -0.5 Z"/><text text-anchor="middle" pointer-events="none" font-size="8px" fill="#000000" x="56.186026960113615" y="3" font-family="sans-serif">ACTED_IN</text></g><g class="relationship" transform="translate(131.4622505546658 178.64288522208597) rotate(296.2961721215997)"><path class="outline" fill="#A5ABB6" stroke="none" d="M 25 0.5 L 50.99927377521979 0.5 L 50.99927377521979 -0.5 L 25 -0.5 Z M 96.56177377521979 0.5 L 122.56104755043958 0.5 L 122.56104755043958 3.5 L 129.56104755043958 0 L 122.56104755043958 -3.5 L 122.56104755043958 -0.5 L 96.56177377521979 -0.5 Z"/><text text-anchor="middle" pointer-events="none" font-size="8px" fill="#000000" x="73.78052377521979" y="3" font-family="sans-serif">ACTED_IN</text></g><g class="relationship" transform="translate(131.4622505546658 178.64288522208597) rotate(264.5464031640344)"><path class="outline" fill="#A5ABB6" stroke="none" d="M 25 0.5 L 68.19119963688875 0.5 L 68.19119963688875 -0.5 L 25 -0.5 Z M 113.75369963688875 0.5 L 156.9448992737775 0.5 L 156.9448992737775 3.5 L 163.9448992737775 0 L 156.9448992737775 -3.5 L 156.9448992737775 -0.5 L 113.75369963688875 -0.5 Z"/><text text-anchor="middle" pointer-events="none" font-size="8px" fill="#000000" x="90.97244963688875" y="3" transform="rotate(180 90.97244963688875 0)" font-family="sans-serif">ACTED_IN</text></g><g class="relationship" transform="translate(-67.2041575348954 -133.52330135596185) rotate(535.4333907641851)"><path class="outline" fill="#A5ABB6" stroke="none" d="M 25 0.5 L 64.34612543296693 0.5 L 64.34612543296693 -0.5 L 25 -0.5 Z M 109.90862543296693 0.5 L 149.25475086593386 0.5 L 149.25475086593386 3.5 L 156.25475086593386 0 L 149.25475086593386 -3.5 L 149.25475086593386 -0.5 L 109.90862543296693 -0.5 Z"/><text text-anchor="middle" pointer-events="none" font-size="8px" fill="#000000" x="87.12737543296693" y="3" transform="rotate(180 87.12737543296693 0)" font-family="sans-serif">ACTED_IN</text></g><g class="relationship" transform="translate(-67.2041575348954 -133.52330135596185) rotate(502.2344199459062)"><path class="outline" fill="#A5ABB6" stroke="none" d="M 25 0.5 L 52.23238981304543 0.5 L 52.23238981304543 -0.5 L 25 -0.5 Z M 97.79488981304543 0.5 L 125.02727962609086 0.5 L 125.02727962609086 3.5 L 132.02727962609086 0 L 125.02727962609086 -3.5 L 125.02727962609086 -0.5 L 97.79488981304543 -0.5 Z"/><text text-anchor="middle" pointer-events="none" font-size="8px" fill="#000000" x="75.01363981304543" y="3" transform="rotate(180 75.01363981304543 0)" font-family="sans-serif">ACTED_IN</text></g><g class="relationship" transform="translate(-67.2041575348954 -133.52330135596185) rotate(462.9102673458806)"><path class="outline" fill="#A5ABB6" stroke="none" d="M 25 0.5 L 34.668137202087706 0.5 L 34.668137202087706 -0.5 L 25 -0.5 Z M 80.2306372020877 0.5 L 89.89877440417541 0.5 L 89.89877440417541 3.5 L 96.89877440417541 0 L 89.89877440417541 -3.5 L 89.89877440417541 -0.5 L 80.2306372020877 -0.5 Z"/><text text-anchor="middle" pointer-events="none" font-size="8px" fill="#000000" x="57.449387202087706" y="3" transform="rotate(180 57.449387202087706 0)" font-family="sans-serif">ACTED_IN</text></g><g class="relationship" transform="translate(-150.18714404891165 -187.7163245411857) rotate(504.91491517070864)"><path class="outline" fill="#A5ABB6" stroke="none" d="M 25 0.5 L 33.41350516569252 0.5 L 33.41350516569252 -0.5 L 25 -0.5 Z M 78.97600516569253 0.5 L 87.38951033138504 0.5 L 87.38951033138504 3.5 L 94.38951033138504 0 L 87.38951033138504 -3.5 L 87.38951033138504 -0.5 L 78.97600516569253 -0.5 Z"/><text text-anchor="middle" pointer-events="none" font-size="8px" fill="#000000" x="56.19475516569252" y="3" transform="rotate(180 56.19475516569252 0)" font-family="sans-serif">ACTED_IN</text></g><g class="relationship" transform="translate(-150.18714404891165 -187.7163245411857) rotate(465.3058219847316)"><path class="outline" fill="#A5ABB6" stroke="none" d="M 25 0.5 L 51.664227056641224 0.5 L 51.664227056641224 -0.5 L 25 -0.5 Z M 97.22672705664122 0.5 L 123.89095411328245 0.5 L 123.89095411328245 3.5 L 130.89095411328245 0 L 123.89095411328245 -3.5 L 123.89095411328245 -0.5 L 97.22672705664122 -0.5 Z"/><text text-anchor="middle" pointer-events="none" font-size="8px" fill="#000000" x="74.44547705664122" y="3" transform="rotate(180 74.44547705664122 0)" font-family="sans-serif">ACTED_IN</text></g><g class="relationship" transform="translate(-150.18714404891165 -187.7163245411857) rotate(432.13990516376566)"><path class="outline" fill="#A5ABB6" stroke="none" d="M 25 0.5 L 64.60383181555652 0.5 L 64.60383181555652 -0.5 L 25 -0.5 Z M 110.16633181555652 0.5 L 149.77016363111304 0.5 L 149.77016363111304 3.5 L 156.77016363111304 0 L 149.77016363111304 -3.5 L 149.77016363111304 -0.5 L 110.16633181555652 -0.5 Z"/><text text-anchor="middle" pointer-events="none" font-size="8px" fill="#000000" x="87.38508181555652" y="3" font-family="sans-serif">ACTED_IN</text></g></g><g class="layer nodes"><g class="node" aria-label="graph-node4" transform="translate(62.37438277615006,107.59000266844106)"><circle class="outline" cx="0" cy="0" r="25" fill="#C990C0" stroke="#b261a5" stroke-width="2px"/><text class="caption" text-anchor="middle" pointer-events="none" x="0" y="0" font-size="10px" fill="#FFFFFF" font-family="sans-serif"> Hugo</text><text class="caption" text-anchor="middle" pointer-events="none" x="0" y="10" font-size="10px" fill="#FFFFFF" font-family="sans-serif"> Weavi…</text></g><g class="node" aria-label="graph-node1" transform="translate(131.4622505546658,178.64288522208597)"><circle class="outline" cx="0" cy="0" r="25" fill="#C990C0" stroke="#b261a5" stroke-width="2px"/><text class="caption" text-anchor="middle" pointer-events="none" x="0" y="0" font-size="10px" fill="#FFFFFF" font-family="sans-serif"> Keanu</text><text class="caption" text-anchor="middle" pointer-events="none" x="0" y="10" font-size="10px" fill="#FFFFFF" font-family="sans-serif"> Reeves</text></g><g class="node" aria-label="graph-node10" transform="translate(240.80564870147796,130.75020792334487)"><circle class="outline" cx="0" cy="0" r="25" fill="#F79767" stroke="#f36924" stroke-width="2px"/><text class="caption" text-anchor="middle" pointer-events="none" x="0" y="-5" font-size="10px" fill="#FFFFFF" font-family="sans-serif"> The</text><text class="caption" text-anchor="middle" pointer-events="none" x="0" y="5" font-size="10px" fill="#FFFFFF" font-family="sans-serif"> Matrix</text><text class="caption" text-anchor="middle" pointer-events="none" x="0" y="15" font-size="10px" fill="#FFFFFF" font-family="sans-serif"> Rev…</text></g><g class="node" aria-label="graph-node9" transform="translate(199.93454060299965,40.07642854722513)"><circle class="outline" cx="0" cy="0" r="25" fill="#F79767" stroke="#f36924" stroke-width="2px"/><text class="caption" text-anchor="middle" pointer-events="none" x="0" y="-5" font-size="10px" fill="#FFFFFF" font-family="sans-serif"> The</text><text class="caption" text-anchor="middle" pointer-events="none" x="0" y="5" font-size="10px" fill="#FFFFFF" font-family="sans-serif"> Matrix</text><text class="caption" text-anchor="middle" pointer-events="none" x="0" y="15" font-size="10px" fill="#FFFFFF" font-family="sans-serif"> Rel…</text></g><g class="node" aria-label="graph-node0" transform="translate(113.5050101341514,-9.446754253504956)"><circle class="outline" cx="0" cy="0" r="25" fill="#F79767" stroke="#f36924" stroke-width="2px"/><text class="caption" text-anchor="middle" pointer-events="none" x="0" y="0" font-size="10px" fill="#FFFFFF" font-family="sans-serif"> The</text><text class="caption" text-anchor="middle" pointer-events="none" x="0" y="10" font-size="10px" fill="#FFFFFF" font-family="sans-serif"> Matrix</text></g><g class="node" aria-label="graph-node175" transform="translate(-67.2041575348954,-133.52330135596185)"><circle class="outline" cx="0" cy="0" r="25" fill="#C990C0" stroke="#b261a5" stroke-width="2px"/><text class="caption" text-anchor="middle" pointer-events="none" x="0" y="0" font-size="10px" fill="#FFFFFF" font-family="sans-serif"> Hugo</text><text class="caption" text-anchor="middle" pointer-events="none" x="0" y="10" font-size="10px" fill="#FFFFFF" font-family="sans-serif"> Weavi…</text></g><g class="node" aria-label="graph-node172" transform="translate(-150.18714404891165,-187.7163245411857)"><circle class="outline" cx="0" cy="0" r="25" fill="#C990C0" stroke="#b261a5" stroke-width="2px"/><text class="caption" text-anchor="middle" pointer-events="none" x="0" y="0" font-size="10px" fill="#FFFFFF" font-family="sans-serif"> Keanu</text><text class="caption" text-anchor="middle" pointer-events="none" x="0" y="10" font-size="10px" fill="#FFFFFF" font-family="sans-serif"> Reeves</text></g><g class="node" aria-label="graph-node181" transform="translate(-247.88350566308964,-119.0921589395577)"><circle class="outline" cx="0" cy="0" r="25" fill="#F79767" stroke="#f36924" stroke-width="2px"/><text class="caption" text-anchor="middle" pointer-events="none" x="0" y="-5" font-size="10px" fill="#FFFFFF" font-family="sans-serif"> The</text><text class="caption" text-anchor="middle" pointer-events="none" x="0" y="5" font-size="10px" fill="#FFFFFF" font-family="sans-serif"> Matrix</text><text class="caption" text-anchor="middle" pointer-events="none" x="0" y="15" font-size="10px" fill="#FFFFFF" font-family="sans-serif"> Rev…</text></g><g class="node" aria-label="graph-node180" transform="translate(-191.33784444834035,-37.354728942489054)"><circle class="outline" cx="0" cy="0" r="25" fill="#F79767" stroke="#f36924" stroke-width="2px"/><text class="caption" text-anchor="middle" pointer-events="none" x="0" y="-5" font-size="10px" fill="#FFFFFF" font-family="sans-serif"> The</text><text class="caption" text-anchor="middle" pointer-events="none" x="0" y="5" font-size="10px" fill="#FFFFFF" font-family="sans-serif"> Matrix</text><text class="caption" text-anchor="middle" pointer-events="none" x="0" y="15" font-size="10px" fill="#FFFFFF" font-family="sans-serif"> Rel…</text></g><g class="node" aria-label="graph-node171" transform="translate(-94.43936544259874,-14.705985061306272)"><circle class="outline" cx="0" cy="0" r="25" fill="#F79767" stroke="#f36924" stroke-width="2px"/><text class="caption" text-anchor="middle" pointer-events="none" x="0" y="0" font-size="10px" fill="#FFFFFF" font-family="sans-serif"> The</text><text class="caption" text-anchor="middle" pointer-events="none" x="0" y="10" font-size="10px" fill="#FFFFFF" font-family="sans-serif"> Matrix</text></g></g></svg>