<svg xmlns="http://www.w3.org/2000/svg" width="542.6195068359375" height="112.47247314453125" viewBox="-236.0707550048828 -49.54789352416992 542.6195068359375 112.47247314453125"><title>Neo4j Graph Visualization</title><desc>Created using Neo4j (http://www.neo4j.com/)</desc><g class="layer relationships"><g class="relationship" transform="translate(277.54877633231956 -14.19271998349464) rotate(536.6965534830673)"><path class="outline" fill="#A5ABB6" stroke="none" d="M 21.40063509461097,12.933012701892217 L 21.90063509461097,12.06698729810778 A 118.42417352342373 118.42417352342373 0 0 0 69.07855879764237,27.319780725910604 L 68.97693965434895,28.314604102051476 A 119.42417352342373 119.42417352342373 0 0 1 21.40063509461097,12.933012701892217 Z M 88.36871638938605,28.712183835195077 L 88.30795821690735,27.714031319555772 A 118.42417352342373 118.42417352342373 0 0 0 136.07141363535328,14.40777268797932 L 134.67916346858746,11.75039814284261 L 142.50399593513325,11.60208472304852 L 137.92774719104105,17.9509387481616 L 136.53549702427523,15.293564203024891 A 119.42417352342373 119.42417352342373 0 0 1 88.36871638938605,28.712183835195077"/><text text-anchor="middle" pointer-events="none" font-size="8px" fill="#000000" x="78.67499232592623" y="31.407830989440512" transform="rotate(180 78.67499232592623 28.407830989440512)" font-family="sans-serif">trek</text></g><g class="relationship" transform="translate(113.17358081784975 -4.704985263817094) rotate(534.5835009440761)"><path class="outline" fill="#A5ABB6" stroke="none" d="M 25 0.5 L 68.71476418146817 0.5 L 68.71476418146817 -0.5 L 25 -0.5 Z M 88.05070168146817 0.5 L 131.76546586293634 0.5 L 131.76546586293634 3.5 L 138.76546586293634 0 L 131.76546586293634 -3.5 L 131.76546586293634 -0.5 L 88.05070168146817 -0.5 Z"/><text text-anchor="middle" pointer-events="none" font-size="8px" fill="#000000" x="78.38273293146817" y="3" transform="rotate(180 78.38273293146817 0)" font-family="sans-serif">trek</text></g><g class="relationship" transform="translate(-49.86064335638388 10.75365494838465) rotate(531.6156400575074)"><path class="outline" fill="#A5ABB6" stroke="none" d="M 25 0.5 L 66.2862804471086 0.5 L 66.2862804471086 -0.5 L 25 -0.5 Z M 85.6222179471086 0.5 L 126.90849839421719 0.5 L 126.90849839421719 3.5 L 133.9084983942172 0 L 126.90849839421719 -3.5 L 126.90849839421719 -0.5 L 85.6222179471086 -0.5 Z"/><text text-anchor="middle" pointer-events="none" font-size="8px" fill="#000000" x="75.9542491971086" y="3" transform="rotate(180 75.9542491971086 0)" font-family="sans-serif">trek</text></g><g class="relationship" transform="translate(277.54877633231956 -14.19271998349464) rotate(536.6965534830673)"><path class="outline" fill="#A5ABB6" stroke="none" d="M 25 0.5 L 67.81853253063625 0.5 L 67.81853253063625 -0.5 L 25 -0.5 Z M 89.83025128063625 0.5 L 132.6487838112725 0.5 L 132.6487838112725 3.5 L 139.6487838112725 0 L 132.6487838112725 -3.5 L 132.6487838112725 -0.5 L 89.83025128063625 -0.5 Z"/><text text-anchor="middle" pointer-events="none" font-size="8px" fill="#000000" x="78.82439190563625" y="3" transform="rotate(180 78.82439190563625 0)" font-family="sans-serif">road</text></g><g class="relationship" transform="translate(277.54877633231956 -14.19271998349464) rotate(536.6965534830673)"><path class="outline" fill="#A5ABB6" stroke="none" d="M 21.40063509461097,-12.933012701892217 L 21.90063509461097,-12.06698729810778 A 118.42417352342373 118.42417352342373 0 0 1 48.38322336542557,-23.320176547768526 L 48.10684821736998,-24.281226378702 A 119.42417352342373 119.42417352342373 0 0 0 21.40063509461097,-12.933012701892217 Z M 109.38658871390915,-25.537613723019078 L 109.14983709132379,-24.566043514952156 A 118.42417352342373 118.42417352342373 0 0 1 136.07141363535328,-14.40777268797932 L 134.67916346858746,-11.75039814284261 L 142.50399593513325,-11.60208472304852 L 137.92774719104105,-17.9509387481616 L 136.53549702427523,-15.293564203024891 A 119.42417352342373 119.42417352342373 0 0 0 109.38658871390915,-25.537613723019078"/><text text-anchor="middle" pointer-events="none" font-size="8px" fill="#000000" x="78.67499232592621" y="-25.407830989440512" transform="rotate(180 78.67499232592621 -28.407830989440512)" font-family="sans-serif">PublicTransport</text></g></g><g class="layer nodes"><g class="node" aria-label="graph-node343" transform="translate(277.54877633231956,-14.19271998349464)"><circle class="outline" cx="0" cy="0" r="25" fill="#57C7E3" stroke="#23b3d7" stroke-width="2px"/><text class="caption" text-anchor="middle" pointer-events="none" x="0" y="5" font-size="10px" fill="#2A2C34" font-family="sans-serif"> Darjeeling</text></g><g class="node" aria-label="graph-node345" transform="translate(-207.0707551255811,33.92457679930491)"><circle class="outline" cx="0" cy="0" r="25" fill="#F16667" stroke="#eb2728" stroke-width="2px"/><text class="caption" text-anchor="middle" pointer-events="none" x="0" y="5" font-size="10px" fill="#FFFFFF" font-family="sans-serif"> Sandakp…</text></g><g class="node" aria-label="graph-node342" transform="translate(113.17358081784975,-4.704985263817094)"><circle class="outline" cx="0" cy="0" r="25" fill="#57C7E3" stroke="#23b3d7" stroke-width="2px"/><text class="caption" text-anchor="middle" pointer-events="none" x="0" y="5" font-size="10px" fill="#2A2C34" font-family="sans-serif"> Rimbik</text></g><g class="node" aria-label="graph-node344" transform="translate(-49.86064335638388,10.75365494838465)"><circle class="outline" cx="0" cy="0" r="25" fill="#D9C8AE" stroke="#c0a378" stroke-width="2px"/><text class="caption" text-anchor="middle" pointer-events="none" x="0" y="5" font-size="10px" fill="#2A2C34" font-family="sans-serif"> BhikeBh…</text></g></g></svg>