<svg xmlns="http://www.w3.org/2000/svg" width="572.114501953125" height="90.28900146484375" viewBox="-345.0714111328125 -86.57425689697266 572.114501953125 90.28900146484375"><title>Neo4j Graph Visualization</title><desc>Created using Neo4j (http://www.neo4j.com/)</desc><g class="layer relationships"><g class="relationship" transform="translate(198.04311071633938 -52.576985830627855) rotate(532.2752290823312)"><path class="outline" fill="#A5ABB6" stroke="none" d="M 21.40063509461097,12.933012701892217 L 21.90063509461097,12.06698729810778 A 120.4397769273024 120.4397769273024 0 0 0 70.07213696969626,27.598702630895275 L 69.97210036305394,28.5936863882157 A 121.4397769273024 121.4397769273024 0 0 1 21.40063509461097,12.933012701892217 Z M 89.36332349409125,28.986681151070158 L 89.3036824100981,27.988461264922762 A 120.4397769273024 120.4397769273024 0 0 0 138.06492157219103,14.421246021650756 L 136.6714185425143,11.764528252243975 L 144.49618020575298,11.61252524730616 L 139.92292561176004,17.9635363808598 L 138.5294225820833,15.306818611453018 A 121.4397769273024 121.4397769273024 0 0 1 89.36332349409125,28.986681151070158"/><text text-anchor="middle" pointer-events="none" font-size="8px" fill="#000000" x="79.66998494312446" y="31.678028248701168" transform="rotate(180 79.66998494312446 28.678028248701168)" font-family="sans-serif">trek</text></g><g class="relationship" transform="translate(32.919802836195245 -30.17874098375678) rotate(181.083736949821)"><path class="outline" fill="#A5ABB6" stroke="none" d="M 25 0.5 L 74.28454330505923 0.5 L 74.28454330505923 -0.5 L 25 -0.5 Z M 93.62048080505923 0.5 L 142.90502411011846 0.5 L 142.90502411011846 3.5 L 149.90502411011846 0 L 142.90502411011846 -3.5 L 142.90502411011846 -0.5 L 93.62048080505923 -0.5 Z"/><text text-anchor="middle" pointer-events="none" font-size="8px" fill="#000000" x="83.95251205505923" y="3" transform="rotate(180 83.95251205505923 0)" font-family="sans-serif">trek</text></g><g class="relationship" transform="translate(-141.95393442409085 -33.48683342224089) rotate(187.06812946295014)"><path class="outline" fill="#A5ABB6" stroke="none" d="M 25 0.5 L 74.55744041961313 0.5 L 74.55744041961313 -0.5 L 25 -0.5 Z M 93.89337791961313 0.5 L 143.45081833922626 0.5 L 143.45081833922626 3.5 L 150.45081833922626 0 L 143.45081833922626 -3.5 L 143.45081833922626 -0.5 L 93.89337791961313 -0.5 Z"/><text text-anchor="middle" pointer-events="none" font-size="8px" fill="#000000" x="84.22540916961313" y="3" transform="rotate(180 84.22540916961313 0)" font-family="sans-serif">trek</text></g><g class="relationship" transform="translate(198.04311071633938 -52.576985830627855) rotate(532.2752290823312)"><path class="outline" fill="#A5ABB6" stroke="none" d="M 25 0.5 L 68.81188810040474 0.5 L 68.81188810040474 -0.5 L 25 -0.5 Z M 90.82360685040474 0.5 L 134.6354949508095 0.5 L 134.6354949508095 3.5 L 141.6354949508095 0 L 134.6354949508095 -3.5 L 134.6354949508095 -0.5 L 90.82360685040474 -0.5 Z"/><text text-anchor="middle" pointer-events="none" font-size="8px" fill="#000000" x="79.81774747540474" y="3" transform="rotate(180 79.81774747540474 0)" font-family="sans-serif">road</text></g><g class="relationship" transform="translate(198.04311071633938 -52.576985830627855) rotate(532.2752290823312)"><path class="outline" fill="#A5ABB6" stroke="none" d="M 21.40063509461097,-12.933012701892217 L 21.90063509461097,-12.06698729810778 A 120.4397769273024 120.4397769273024 0 0 1 49.36223383722984,-23.66232295939058 L 49.09024487679856,-24.624623331105937 A 121.4397769273024 121.4397769273024 0 0 0 21.40063509461097,-12.933012701892217 Z M 110.38884517043613,-25.866939440972644 L 110.15606870849403,-24.89440917472602 A 120.4397769273024 120.4397769273024 0 0 1 138.06492157219103,-14.421246021650756 L 136.6714185425143,-11.764528252243975 L 144.49618020575298,-11.61252524730616 L 139.92292561176004,-17.9635363808598 L 138.5294225820833,-15.306818611453018 A 121.4397769273024 121.4397769273024 0 0 0 110.38884517043613,-25.866939440972644"/><text text-anchor="middle" pointer-events="none" font-size="8px" fill="#000000" x="79.66998494312449" y="-25.678028248701168" transform="rotate(180 79.66998494312449 -28.678028248701168)" font-family="sans-serif">PublicTransport</text></g></g><g class="layer nodes"><g class="node" aria-label="graph-node343" transform="translate(198.04311071633938,-52.576985830627855)"><circle class="outline" cx="0" cy="0" r="25" fill="#57C7E3" stroke="#23b3d7" stroke-width="2px"/><text class="caption" text-anchor="middle" pointer-events="none" x="0" y="5" font-size="10px" fill="#2A2C34" font-family="sans-serif"> Darjeeling</text></g><g class="node" aria-label="graph-node345" transform="translate(-316.07142079025397,-55.07596488770681)"><circle class="outline" cx="0" cy="0" r="25" fill="#F16667" stroke="#eb2728" stroke-width="2px"/><text class="caption" text-anchor="middle" pointer-events="none" x="0" y="5" font-size="10px" fill="#FFFFFF" font-family="sans-serif"> Sandakp…</text></g><g class="node" aria-label="graph-node342" transform="translate(32.919802836195245,-30.17874098375678)"><circle class="outline" cx="0" cy="0" r="25" fill="#57C7E3" stroke="#23b3d7" stroke-width="2px"/><text class="caption" text-anchor="middle" pointer-events="none" x="0" y="5" font-size="10px" fill="#2A2C34" font-family="sans-serif"> Rimbik</text></g><g class="node" aria-label="graph-node344" transform="translate(-141.95393442409085,-33.48683342224089)"><circle class="outline" cx="0" cy="0" r="25" fill="#D9C8AE" stroke="#c0a378" stroke-width="2px"/><text class="caption" text-anchor="middle" pointer-events="none" x="0" y="5" font-size="10px" fill="#2A2C34" font-family="sans-serif"> BhikeBh…</text></g></g></svg>